<svg xmlns="http://www.w3.org/2000/svg" width="512" height="512">
    <rect x="-10" y="-10"  width="70"  height="800" fill="#E8E8E8" transform="rotate(-45)"/>
    <rect x="200" y="5"    width="70"  height="270" fill="#E8E8E8" transform="rotate(45)" />
    <rect x="400" y="-330" width="70"  height="275" fill="#E8E8E8" transform="rotate(45)" />

    <rect x="0"   y="10"   width="200" height="190" fill="#77c157" transform="rotate(45)" />
    <rect x="50"  y="-410" width="350" height="350" fill="#0E68A7" transform="rotate(45)" />
    <rect x="470" y="-260" width="200" height="200" fill="#CBCBCB" transform="rotate(45)" />
    <rect x="269" y="10"   width="500" height="350" fill="#E4DDC9" transform="rotate(45)" />

    <path transform="translate(209 318) scale(0.25) rotate(25,0,0)" fill="#666"
          d="M182.9,551.7c0,0.1,0.2,0.3,0.2,0.3S358.3,283,358.3,194.6c0-130.1-88.8-186.7-175.4-186.9   C96.3,7.9,7.5,64.5,7.5,194.6c0,88.4,175.3,357.4,175.3,357.4S182.9,551.7,182.9,551.7z M122.2,187.2c0-33.6,27.2-60.8,60.8-60.8   c33.6,0,60.8,27.2,60.8,60.8S216.5,248,182.9,248C149.4,248,122.2,220.8,122.2,187.2z"/>

    <path fill="#F77B00" transform="translate(60 65) scale(0.72)"
          d="M182.9,551.7c0,0.1,0.2,0.3,0.2,0.3S358.3,283,358.3,194.6c0-130.1-88.8-186.7-175.4-186.9   C96.3,7.9,7.5,64.5,7.5,194.6c0,88.4,175.3,357.4,175.3,357.4S182.9,551.7,182.9,551.7z M122.2,187.2c0-33.6,27.2-60.8,60.8-60.8   c33.6,0,60.8,27.2,60.8,60.8S216.5,248,182.9,248C149.4,248,122.2,220.8,122.2,187.2z"/>
</svg>
