<svg xmlns="http://www.w3.org/2000/svg" width="512" height="512" viewBox="0 0 512 512">
    <rect x="-10" y="-10"  width="70"  height="800" fill="#E8E8E8" transform="rotate(-45)"/>
    <rect x="200" y="5"    width="70"  height="270" fill="#E8E8E8" transform="rotate(45)" />
    <rect x="400" y="-330" width="70"  height="275" fill="#E8E8E8" transform="rotate(45)" />

    <rect x="0"   y="10"   width="200" height="190" fill="#77c157" transform="rotate(45)" />
    <rect x="50"  y="-410" width="350" height="350" fill="#0E68A7" transform="rotate(45)" />
    <rect x="470" y="-260" width="200" height="200" fill="#CBCBCB" transform="rotate(45)" />
    <rect x="269" y="10"   width="500" height="350" fill="#E4DDC9" transform="rotate(45)" />

    <g fill="#ff4d02" transform="scale(3.5) translate(10 20)">
        <path d="M59.38 12.82a9.74 9.74 0 1 1-9.74-9.74 9.74 9.74 0 0 1 9.74 9.74z"/>
        <path d="M96.07 12.18a3.78 3.78 0 0 0-5.09-1.68l-17 8-14.35 5.11c-9.42 2.28-18.74 2.3-27.23-2.08 0 0-8.92-4.79-12.4-8C17.08 10.82 6.24 1.04 6.24 1.04a3.79 3.79 0 0 0-5.16 5.55l14 15.49 16.7 14.51c0 1.07-3.13 26.81-.93 47.93a38.55 38.55 0 0 0 3.88 11.89l8.62 12.44c1.85 2 4.72 2.61 6.73.76s2-4.79.53-7.47l-6.12-16.47 1.56-12 3.51 44.59a4.95 4.95 0 0 0 9.89 0V73.05c0-9.57 1.62-28.09 3.08-33.44C63.85 34.77 76.7 28.2 76.7 28.2l17.73-11a3.79 3.79 0 0 0 1.64-5.02z"/>
    </g>
</svg>
